<svg xmlns="http://www.w3.org/2000/svg" width="173.005" height="317" viewBox="0 0 173.005 317"><defs><style>.a{fill:#6d6d6d;}.b{fill:#09f;}.c{fill:#fe0;mix-blend-mode:color-dodge;isolation:isolate;}.d{fill:#393939;stroke:#ebebeb;font-size:237px;font-family:SegoeUI, Segoe UI;}.e,.f{stroke:none;}.f{fill:#707070;}</style></defs><g transform="translate(-1139.945 -302)"><g transform="matrix(0.017, -1, 1, 0.017, 718.359, 1599.477)"><g class="a" transform="translate(1011.174 404)"><path class="e" d="M 205.9303741455078 133.4999847412109 L 31.06960487365723 133.4999847412109 C 28.31231498718262 133.4999847412109 25.69447326660156 132.7117462158203 23.49905204772949 131.2205200195312 C 21.44318389892578 129.8240356445312 19.8049201965332 127.8618621826172 18.76144790649414 125.5460662841797 C 17.71794700622559 123.2302780151367 17.33331489562988 120.7032012939453 17.64913177490234 118.2380447387695 C 17.98639488220215 115.6055679321289 19.13013076782227 113.1223602294922 20.95671081542969 111.056884765625 L 108.3871078491211 12.19046401977539 C 109.6972351074219 10.70896434783936 111.2688140869141 9.559069633483887 113.0581817626953 8.772727012634277 C 114.7782897949219 8.01685905456543 116.6091613769531 7.633569717407227 118.5 7.633569717407227 C 120.3908386230469 7.633569717407227 122.2217102050781 8.01685905456543 123.9418182373047 8.772727012634277 C 125.7311859130859 9.559069633483887 127.3027648925781 10.70896434783936 128.6128997802734 12.19046401977539 L 216.0432586669922 111.056884765625 C 217.8698425292969 113.1223602294922 219.0135803222656 115.6055679321289 219.3508453369141 118.2380447387695 C 219.6666870117188 120.7032012939453 219.2820587158203 123.2302780151367 218.2385559082031 125.5460433959961 C 217.1950836181641 127.8618316650391 215.5568084716797 129.8240356445312 213.5009155273438 131.2205200195312 C 211.3055267333984 132.7117462158203 208.6876525878906 133.4999847412109 205.9303741455078 133.4999847412109 Z"/><path class="f" d="M 118.5 8.133560180664062 C 116.6788330078125 8.133560180664062 114.915641784668 8.50262451171875 113.2593307495117 9.230484008789062 C 111.5367202758789 9.98748779296875 110.0234756469727 11.09478759765625 108.7616729736328 12.52167510986328 L 21.33125305175781 111.3880920410156 C 19.57130432128906 113.3782348632812 18.46955871582031 115.7688980102539 18.14508056640625 118.3015899658203 C 17.84100341796875 120.6750946044922 18.21177673339844 123.1091461181641 19.21730041503906 125.3406753540039 C 20.22280883789062 127.5721740722656 21.80058288574219 129.46240234375 23.77999877929688 130.8069305419922 C 25.89219665527344 132.2416534423828 28.41291809082031 133.0000152587891 31.06961059570312 133.0000152587891 L 205.9303588867188 133.0000152587891 C 208.5870513916016 133.0000152587891 211.1077728271484 132.2416534423828 213.219970703125 130.8069305419922 C 215.1994171142578 129.4623718261719 216.7771606445312 127.5721740722656 217.7826995849609 125.3406448364258 C 218.7882232666016 123.1091461181641 219.1589660644531 120.6750640869141 218.8548889160156 118.3015594482422 C 218.5304107666016 115.7688674926758 217.4286346435547 113.3782348632812 215.668701171875 111.3880920410156 L 128.2383422851562 12.52167510986328 C 126.9765014648438 11.09478759765625 125.4632797241211 9.98748779296875 123.7406692504883 9.230484008789062 C 122.084358215332 8.50262451171875 120.3211364746094 8.133560180664062 118.5 8.133560180664062 M 118.5 7.133560180664062 C 122.350715637207 7.133560180664062 126.2014312744141 8.708786010742188 128.9874420166016 11.85923004150391 L 216.4178009033203 110.7256469726562 C 224.4089965820312 119.7620620727539 217.9933624267578 134.0000152587891 205.9303588867188 134.0000152587891 L 31.06961059570312 134.0000152587891 C 19.00660705566406 134.0000152587891 12.59100341796875 119.7620620727539 20.58213806152344 110.7256469726562 L 108.0125579833984 11.85923004150391 C 110.7985687255859 8.708786010742188 114.649284362793 7.133560180664062 118.5 7.133560180664062 Z"/></g><path class="b" d="M108.013,11.859a14,14,0,0,1,20.975,0l87.43,98.866A14,14,0,0,1,205.93,134H31.07a14,14,0,0,1-10.487-23.274Z" transform="translate(1011.174 412)"/><path class="c" d="M108.013,11.859a14,14,0,0,1,20.975,0l87.43,98.866A14,14,0,0,1,205.93,134H31.07a14,14,0,0,1-10.487-23.274Z" transform="translate(1022.174 439)"/></g><text class="d" transform="translate(1234 559)"><tspan x="-70.88" y="0">R</tspan></text></g></svg>